<?xml version="1.0" standalone="no"?><!DOCTYPE svg PUBLIC "-//W3C//DTD SVG 1.1//EN" "http://www.w3.org/Graphics/SVG/1.1/DTD/svg11.dtd"><svg class="icon" width="32px" height="32.00px" viewBox="0 0 1024 1024" version="1.1" xmlns="http://www.w3.org/2000/svg"><path d="M64.303027 959.867354 160.724053 924.710646 99.425965 863.395162Z" fill="#66a3ff" /><path d="M109.721449 831.888588 192.248024 914.39879 358.512768 855.371418 168.765193 665.641239Z" fill="#66a3ff" /><path d="M941.514869 192.802144 831.030545 82.335217c-24.425296-24.424272-64.157205-24.240077-88.750323 0.369414l-68.261687 68.245314 198.86421 198.865233 68.228941-68.245314C965.738573 256.944 965.906395 217.211067 941.514869 192.802144z" fill="#66a3ff" /><path d="M184.206884 639.551024l200.378703 200.395076 468.38055-468.346781L652.553665 171.186847 184.206884 639.551024zM761.96147 371.986129 384.989793 748.95883l-21.935592-21.951965 376.938931-376.972701L761.96147 371.986129zM718.056518 328.048431 341.051071 705.037505l-21.935592-21.969361L696.087157 306.096467 718.056518 328.048431zM297.147142 661.116179l-21.969361-21.951965 376.972701-376.972701 21.969361 21.952988L297.147142 661.116179z" fill="#66a3ff" /></svg>