<?xml version="1.0" standalone="no"?><!DOCTYPE svg PUBLIC "-//W3C//DTD SVG 1.1//EN" "http://www.w3.org/Graphics/SVG/1.1/DTD/svg11.dtd"><svg class="icon" width="128px" height="128.00px" viewBox="0 0 1024 1024" version="1.1" xmlns="http://www.w3.org/2000/svg"><path d="M962.133333 456.533333v-4.266666-2.133334c0-2.133333 0-2.133333-2.133333-4.266666 0 0 0-2.133333-2.133333-2.133334 0-2.133333-2.133333-2.133333-2.133334-2.133333l-2.133333-2.133333-72.533333-61.866667V192c0-49.066667-40.533333-87.466667-87.466667-87.466667H563.2l-34.133333-29.866666c-10.666667-8.533333-25.6-8.533333-34.133334 0l-34.133333 29.866666H232.533333C183.466667 104.533333 145.066667 145.066667 145.066667 192v183.466667l-72.533334 61.866666-2.133333 2.133334-2.133333 2.133333s0 2.133333-2.133334 2.133333c-2.133333 4.266667-2.133333 4.266667-2.133333 6.4v430.933334c0 40.533333 34.133333 74.666667 74.666667 74.666666h750.933333c40.533333 0 74.666667-34.133333 74.666667-74.666666l-2.133334-424.533334z m-72.533333-2.133333l-8.533333 6.4V448l8.533333 6.4zM196.266667 192c0-19.2 14.933333-34.133333 34.133333-34.133333h563.2c19.2 0 34.133333 14.933333 34.133333 34.133333v298.666667L512 676.266667 196.266667 490.666667V192zM145.066667 445.866667v12.8l-8.533334-6.4 8.533334-6.4z m763.733333 435.2c0 12.8-10.666667 21.333333-21.333333 21.333333H136.533333c-12.8 0-21.333333-10.666667-21.333333-21.333333V505.6l8.533333 4.266667 375.466667 221.866666c8.533333 4.266667 19.2 4.266667 27.733333 0l384-226.133333v375.466667z" fill="#2c2c2c" /></svg>