<?xml version="1.0" standalone="no"?><!DOCTYPE svg PUBLIC "-//W3C//DTD SVG 1.1//EN" "http://www.w3.org/Graphics/SVG/1.1/DTD/svg11.dtd"><svg class="icon" width="32px" height="32.00px" viewBox="0 0 1024 1024" version="1.1" xmlns="http://www.w3.org/2000/svg"><path d="M965.768 928.734l-260.335-260.335c63.966-67.345 103.424-158.106 103.424-258.253 0-207.36-168.107-375.467-375.467-375.467s-375.467 168.107-375.467 375.467c0 207.326 168.107 375.467 375.467 375.467 82.5 0 158.583-26.931 220.535-72.055l263.509 263.509c13.38 13.346 34.918 13.346 48.299 0 13.38-13.414 13.38-34.953 0.034-48.333zM433.391 724.48c-169.643 0-307.2-137.557-307.2-307.2 0-169.677 137.557-307.2 307.2-307.2 169.677 0 307.2 137.557 307.2 307.2 0 169.609-137.523 307.2-307.2 307.2z" fill="#66a3ff" /></svg>